<svg t="1638280343784" class="icon" viewBox="0 0 1024 1024" version="1.1" xmlns="http://www.w3.org/2000/svg" p-id="7835"
    width="200" height="200">
    <path
        d="M512 85.333333C276.736 85.333333 85.333333 276.736 85.333333 512s191.402667 426.666667 426.666667 426.666667 426.666667-191.402667 426.666667-426.666667S747.264 85.333333 512 85.333333z m0 768c-188.202667 0-341.333333-153.130667-341.333333-341.333333s153.130667-341.333333 341.333333-341.333333 341.333333 153.130667 341.333333 341.333333-153.130667 341.333333-341.333333 341.333333z"
        p-id="7836" fill="#1296db"></path>
    <path
        d="M512 768c170.666667 0 213.333333-170.666667 213.333333-170.666667H298.666667s42.666667 170.666667 213.333333 170.666667z m237.013333-391.168l-47.317333-70.997333-128 85.333333a42.709333 42.709333 0 0 0 4.608 73.685333l170.666667 85.333334 38.186666-76.330667-104.917333-52.437333 66.773333-44.586667z m-279.765333 52.48a42.666667 42.666667 0 0 0-18.901333-38.144l-128-85.333333-47.36 70.997333 66.816 44.544-104.917334 52.437333 38.186667 76.330667 170.666667-85.333333a42.581333 42.581333 0 0 0 23.509333-35.498667z"
        p-id="7837" fill="#1296db"></path>
</svg>