<svg t="1638280083828" class="icon" viewBox="0 0 1024 1024" version="1.1" xmlns="http://www.w3.org/2000/svg" p-id="1182"
    width="200" height="200">
    <path
        d="M353.721204 223.418182a18.613527 18.613527 0 0 0 17.673309-12.762764l20.200728-61.072291 61.067636-20.200727a18.613527 18.613527 0 0 0 0-35.346618l-61.067636-20.200727-20.200728-61.072291a18.613527 18.613527 0 0 0-35.346618 0l-20.200727 61.072291-61.072291 20.200727a18.613527 18.613527 0 0 0 0 35.346618l61.072291 20.200727 20.200727 61.072291A18.613527 18.613527 0 0 0 353.721204 223.418182zM266.485713 261.599418l-61.07229-20.200727-20.200728-61.072291a18.613527 18.613527 0 0 0-35.346618 0l-20.200727 61.072291-61.072291 20.200727a18.613527 18.613527 0 0 0 0 35.346618l61.072291 20.200728 20.200727 61.072291a18.613527 18.613527 0 0 0 35.346618 0l20.200728-61.072291 61.067636-20.200728a18.613527 18.613527 0 0 0 0-35.346618zM545.758441 894.6176l-61.072291-20.200727-20.200727-61.072291a18.613527 18.613527 0 0 0-35.346619 0l-20.200727 61.072291-61.072291 20.200727a18.613527 18.613527 0 0 0 0 35.346618l61.072291 20.200727 20.200727 61.072291a18.613527 18.613527 0 0 0 35.346619 0l20.200727-61.072291 61.067636-20.200727a18.613527 18.613527 0 0 0 0-35.346618zM955.358441 242.981236l-89.041455-29.472581-29.467927-89.0368a18.613527 18.613527 0 0 0-35.346618 0l-29.472582 89.041454-89.041455 29.467927a18.613527 18.613527 0 0 0 0 35.346619l89.041455 29.472581 29.472582 89.0368a18.613527 18.613527 0 0 0 35.346618 0l29.472582-89.041454 89.0368-29.467927a18.613527 18.613527 0 0 0 0-35.346619z"
        fill="#7BE5E4" p-id="1183"></path>
    <path
        d="M703.743023 531.563055l-109.824-36.347346-36.342691-109.814691a18.613527 18.613527 0 0 0-35.346619 0l-36.347345 109.814691-109.814691 36.352a18.613527 18.613527 0 0 0 0 35.341964l109.814691 36.347345 36.352 109.814691a18.613527 18.613527 0 0 0 35.341964 0l36.342691-109.814691 109.819345-36.352a18.613527 18.613527 0 0 0 0-35.341963z"
        fill="#3BABB7" p-id="1184"></path>
</svg>